<svg xmlns="http://www.w3.org/2000/svg" xmlns:xlink="http://www.w3.org/1999/xlink" width="700" zoomAndPan="magnify" viewBox="0 0 525 374.999991" height="500" preserveAspectRatio="xMidYMid meet" version="1.0"><defs><g/><clipPath id="ab6ff5259b"><path d="M 148.421875 37.144531 L 338 37.144531 L 338 283.894531 L 148.421875 283.894531 Z M 148.421875 37.144531 " clip-rule="nonzero"/></clipPath><clipPath id="9cca282f64"><path d="M 173.226562 0.828125 L 390.726562 0.828125 L 390.726562 283.578125 L 173.226562 283.578125 Z M 173.226562 0.828125 " clip-rule="nonzero"/></clipPath><clipPath id="b70b60ef1f"><path d="M 218.65625 46.382812 L 345.40625 46.382812 L 345.40625 166.382812 L 218.65625 166.382812 Z M 218.65625 46.382812 " clip-rule="nonzero"/></clipPath></defs><g clip-path="url(#ab6ff5259b)"><path fill="#0f3a47" d="M 337.835938 131.613281 C 337.835938 183.734375 243.273438 284.078125 243.273438 284.078125 C 243.273438 284.078125 148.710938 183.734375 148.710938 131.613281 C 148.710938 79.488281 191.046875 37.234375 243.273438 37.234375 C 295.496094 37.234375 337.835938 79.488281 337.835938 131.613281 Z M 337.835938 131.613281 " fill-opacity="1" fill-rule="nonzero"/></g><g clip-path="url(#9cca282f64)"><path fill="#44c3c2" d="M 390.347656 109.078125 C 390.347656 168.804688 281.953125 283.785156 281.953125 283.785156 C 281.953125 283.785156 173.554688 168.804688 173.554688 109.078125 C 173.554688 49.347656 222.085938 0.929688 281.949219 0.929688 C 341.8125 0.929688 390.347656 49.347656 390.347656 109.078125 Z M 390.347656 109.078125 " fill-opacity="1" fill-rule="nonzero"/></g><path fill="#ffffff" d="M 278.238281 53.785156 L 219.648438 75.953125 L 219.648438 164.15625 L 255.636719 164.15625 L 255.636719 136.441406 C 255.636719 124.019531 265.804688 113.851562 278.238281 113.851562 C 290.667969 113.851562 300.839844 124.019531 300.839844 136.441406 L 300.839844 164.15625 L 336.824219 164.15625 L 336.824219 75.953125 Z M 278.238281 53.785156 " fill-opacity="1" fill-rule="evenodd"/><path fill="#f7d714" d="M 285.40625 116.265625 C 275.636719 116.265625 267.648438 124.253906 267.648438 134.015625 L 267.648438 161.726562 L 303.167969 161.726562 L 303.167969 134.015625 C 303.167969 124.253906 295.175781 116.265625 285.40625 116.265625 Z M 285.40625 116.265625 " fill-opacity="1" fill-rule="evenodd"/><g clip-path="url(#b70b60ef1f)"><path fill="#0f3a47" d="M 223.445312 73.523438 L 282.03125 51.359375 L 340.621094 73.523438 L 340.621094 161.726562 L 304.632812 161.726562 L 304.632812 134.015625 C 304.632812 121.589844 294.464844 111.425781 282.03125 111.425781 C 269.601562 111.425781 259.429688 121.589844 259.429688 134.015625 L 259.429688 161.726562 L 223.445312 161.726562 Z M 299.792969 161.726562 L 264.273438 161.726562 L 264.273438 134.015625 C 264.273438 124.253906 272.265625 116.265625 282.03125 116.265625 C 291.800781 116.265625 299.792969 124.253906 299.792969 134.015625 Z M 264.273438 166.382812 L 345.277344 166.382812 L 345.277344 70.308594 L 282.03125 46.382812 L 218.789062 70.308594 L 218.789062 166.382812 Z M 264.273438 166.382812 " fill-opacity="1" fill-rule="evenodd"/></g><g fill="#0f3a47" fill-opacity="1"><g transform="translate(-1.484367, 181.698758)"><g><path d="M 64.796875 -17.265625 C 65.179688 -16.484375 65.375 -15.550781 65.375 -14.46875 C 65.382812 -13.394531 65.160156 -12.472656 64.703125 -11.703125 L 43.1875 24.21875 L 41.3125 19.921875 L 82.921875 25.5625 C 84.972656 25.90625 86.410156 26.914062 87.234375 28.59375 C 87.890625 29.945312 88 31.390625 87.5625 32.921875 C 87.132812 34.460938 86.15625 35.601562 84.625 36.34375 L 35.8125 60.21875 C 34.351562 60.9375 32.898438 61.054688 31.453125 60.578125 C 30.003906 60.097656 28.894531 59.070312 28.125 57.5 C 27.351562 55.925781 27.21875 54.40625 27.71875 52.9375 C 28.21875 51.476562 29.195312 50.390625 30.65625 49.671875 L 70.375 30.25 L 71.25 33.921875 L 36.59375 29.546875 C 35.71875 29.335938 34.867188 28.960938 34.046875 28.421875 C 33.234375 27.890625 32.660156 27.210938 32.328125 26.390625 C 31.921875 25.691406 31.753906 24.851562 31.828125 23.875 C 31.910156 22.90625 32.140625 22.007812 32.515625 21.1875 L 50.109375 -7.375 L 55.640625 -7.359375 L 12.96875 13.5 C 11.507812 14.21875 10.066406 14.367188 8.640625 13.953125 C 7.222656 13.535156 6.15625 12.59375 5.4375 11.125 C 4.75 9.726562 4.675781 8.335938 5.21875 6.953125 C 5.769531 5.578125 6.773438 4.53125 8.234375 3.8125 L 57.046875 -20.0625 C 58.460938 -20.75 59.929688 -20.816406 61.453125 -20.265625 C 62.972656 -19.722656 64.085938 -18.722656 64.796875 -17.265625 Z M 64.796875 -17.265625 "/></g></g></g><g fill="#0f3a47" fill-opacity="1"><g transform="translate(40.222223, 259.606557)"><g><path d="M 8.640625 9.65625 C 7.472656 8.351562 6.929688 6.925781 7.015625 5.375 C 7.109375 3.832031 7.757812 2.519531 8.96875 1.4375 L 49.390625 -34.734375 C 50.609375 -35.828125 51.988281 -36.328125 53.53125 -36.234375 C 55.082031 -36.148438 56.398438 -35.503906 57.484375 -34.296875 L 77.8125 -11.5625 C 78.894531 -10.351562 79.414062 -8.992188 79.375 -7.484375 C 79.34375 -5.984375 78.71875 -4.6875 77.5 -3.59375 C 76.476562 -2.675781 75.203125 -2.269531 73.671875 -2.375 C 72.148438 -2.488281 70.847656 -3.148438 69.765625 -4.359375 L 52.875 -23.25 L 54.28125 -23.375 L 40.21875 -10.796875 L 40.6875 -12.09375 L 54.640625 3.515625 C 55.722656 4.722656 56.242188 6.078125 56.203125 7.578125 C 56.171875 9.078125 55.546875 10.375 54.328125 11.46875 C 53.296875 12.382812 52.019531 12.789062 50.5 12.6875 C 48.976562 12.582031 47.675781 11.925781 46.59375 10.71875 L 32.515625 -5.03125 L 33.703125 -4.96875 L 16.78125 10.171875 C 15.570312 11.253906 14.171875 11.726562 12.578125 11.59375 C 10.992188 11.46875 9.679688 10.820312 8.640625 9.65625 Z M 8.640625 9.65625 "/></g></g></g><g fill="#0f3a47" fill-opacity="1"><g transform="translate(82.97263, 306.070813)"><g><path d="M 24.109375 16.609375 C 22.671875 15.617188 21.796875 14.351562 21.484375 12.8125 C 21.179688 11.269531 21.492188 9.832031 22.421875 8.5 L 53.296875 -36.34375 L 63.34375 -29.421875 L 32.46875 15.421875 C 31.539062 16.753906 30.289062 17.539062 28.71875 17.78125 C 27.144531 18.03125 25.609375 17.640625 24.109375 16.609375 Z M 38.171875 -40.375 C 36.828125 -41.300781 35.988281 -42.484375 35.65625 -43.921875 C 35.320312 -45.367188 35.617188 -46.765625 36.546875 -48.109375 C 37.472656 -49.453125 38.660156 -50.210938 40.109375 -50.390625 C 41.554688 -50.566406 42.953125 -50.191406 44.296875 -49.265625 L 78.625 -25.625 C 79.957031 -24.695312 80.789062 -23.507812 81.125 -22.0625 C 81.457031 -20.625 81.160156 -19.234375 80.234375 -17.890625 C 79.316406 -16.546875 78.128906 -15.785156 76.671875 -15.609375 C 75.222656 -15.429688 73.832031 -15.804688 72.5 -16.734375 Z M 38.171875 -40.375 "/></g></g></g><g fill="#0f3a47" fill-opacity="1"><g transform="translate(140.786774, 344.003496)"><g><path d="M 35.28125 -56.875 L 64.65625 -45.703125 C 66.175781 -45.117188 67.265625 -44.148438 67.921875 -42.796875 C 68.585938 -41.441406 68.628906 -40.003906 68.046875 -38.484375 C 67.492188 -37.015625 66.53125 -36.023438 65.15625 -35.515625 C 63.789062 -35.003906 62.347656 -35.039062 60.828125 -35.625 L 36.265625 -44.953125 L 37.625 -46.140625 L 31.125 -29.03125 L 30.6875 -30 L 51.21875 -22.203125 C 52.738281 -21.617188 53.828125 -20.648438 54.484375 -19.296875 C 55.140625 -17.941406 55.175781 -16.5 54.59375 -14.96875 C 54.039062 -13.507812 53.078125 -12.519531 51.703125 -12 C 50.335938 -11.488281 48.894531 -11.523438 47.375 -12.109375 L 27.109375 -19.8125 L 27.8125 -20.34375 L 21.078125 -2.625 L 20.6875 -3.6875 L 45.15625 5.609375 C 46.675781 6.191406 47.753906 7.1875 48.390625 8.59375 C 49.023438 10.007812 49.085938 11.394531 48.578125 12.75 C 48.015625 14.21875 47.039062 15.222656 45.65625 15.765625 C 44.28125 16.304688 42.832031 16.285156 41.3125 15.703125 L 11.9375 4.53125 C 10.414062 3.957031 9.335938 2.960938 8.703125 1.546875 C 8.078125 0.140625 8.050781 -1.320312 8.625 -2.84375 L 27.90625 -53.546875 C 28.488281 -55.078125 29.484375 -56.15625 30.890625 -56.78125 C 32.296875 -57.414062 33.757812 -57.445312 35.28125 -56.875 Z M 35.28125 -56.875 "/></g></g></g><g fill="#0f3a47" fill-opacity="1"><g transform="translate(199.12496, 364.16958)"><g/></g></g><g fill="#0f3a47" fill-opacity="1"><g transform="translate(233.065601, 371.289796)"><g><path d="M 28.140625 1.265625 C 23.765625 1.210938 19.832031 0.617188 16.34375 -0.515625 C 12.851562 -1.648438 9.523438 -3.609375 6.359375 -6.390625 C 5.554688 -7.097656 4.941406 -7.890625 4.515625 -8.765625 C 4.085938 -9.648438 3.878906 -10.53125 3.890625 -11.40625 C 3.898438 -12.84375 4.429688 -14.101562 5.484375 -15.1875 C 6.535156 -16.269531 7.84375 -16.800781 9.40625 -16.78125 C 10.59375 -16.769531 11.648438 -16.382812 12.578125 -15.625 C 14.929688 -13.65625 17.273438 -12.15625 19.609375 -11.125 C 21.953125 -10.09375 24.84375 -9.5625 28.28125 -9.53125 C 30.59375 -9.5 32.722656 -9.828125 34.671875 -10.515625 C 36.617188 -11.210938 38.191406 -12.164062 39.390625 -13.375 C 40.597656 -14.582031 41.210938 -15.96875 41.234375 -17.53125 C 41.253906 -19.414062 40.707031 -21.019531 39.59375 -22.34375 C 38.488281 -23.664062 36.78125 -24.796875 34.46875 -25.734375 C 32.164062 -26.671875 29.238281 -27.410156 25.6875 -27.953125 C 22.3125 -28.492188 19.34375 -29.289062 16.78125 -30.34375 C 14.226562 -31.40625 12.101562 -32.742188 10.40625 -34.359375 C 8.707031 -35.984375 7.429688 -37.878906 6.578125 -40.046875 C 5.722656 -42.210938 5.3125 -44.644531 5.34375 -47.34375 C 5.394531 -51.40625 6.484375 -54.863281 8.609375 -57.71875 C 10.742188 -60.582031 13.601562 -62.738281 17.1875 -64.1875 C 20.78125 -65.644531 24.734375 -66.347656 29.046875 -66.296875 C 33.117188 -66.253906 36.878906 -65.601562 40.328125 -64.34375 C 43.785156 -63.082031 46.601562 -61.492188 48.78125 -59.578125 C 50.570312 -58.117188 51.457031 -56.453125 51.4375 -54.578125 C 51.414062 -53.203125 50.867188 -51.957031 49.796875 -50.84375 C 48.722656 -49.738281 47.460938 -49.191406 46.015625 -49.203125 C 45.078125 -49.210938 44.238281 -49.503906 43.5 -50.078125 C 42.507812 -50.960938 41.171875 -51.804688 39.484375 -52.609375 C 37.804688 -53.410156 36.03125 -54.085938 34.15625 -54.640625 C 32.289062 -55.203125 30.546875 -55.488281 28.921875 -55.5 C 26.234375 -55.539062 23.957031 -55.226562 22.09375 -54.5625 C 20.238281 -53.894531 18.832031 -52.972656 17.875 -51.796875 C 16.925781 -50.617188 16.441406 -49.25 16.421875 -47.6875 C 16.398438 -45.800781 16.929688 -44.238281 18.015625 -43 C 19.097656 -41.769531 20.664062 -40.785156 22.71875 -40.046875 C 24.78125 -39.304688 27.242188 -38.632812 30.109375 -38.03125 C 33.859375 -37.300781 37.148438 -36.453125 39.984375 -35.484375 C 42.816406 -34.515625 45.164062 -33.28125 47.03125 -31.78125 C 48.894531 -30.28125 50.28125 -28.414062 51.1875 -26.1875 C 52.101562 -23.957031 52.539062 -21.242188 52.5 -18.046875 C 52.457031 -13.984375 51.289062 -10.492188 49 -7.578125 C 46.707031 -4.660156 43.722656 -2.441406 40.046875 -0.921875 C 36.367188 0.585938 32.398438 1.316406 28.140625 1.265625 Z M 28.140625 1.265625 "/></g></g></g><g fill="#0f3a47" fill-opacity="1"><g transform="translate(299.441869, 370.810833)"><g><path d="M 29.203125 -5.75 C 24.023438 -4.5625 19.28125 -4.609375 14.96875 -5.890625 C 10.664062 -7.179688 7.0625 -9.453125 4.15625 -12.703125 C 1.257812 -15.953125 -0.726562 -19.925781 -1.8125 -24.625 C -3.070312 -30.113281 -3.03125 -35.046875 -1.6875 -39.421875 C -0.34375 -43.804688 1.882812 -47.453125 5 -50.359375 C 8.125 -53.265625 11.695312 -55.175781 15.71875 -56.09375 C 18.820312 -56.8125 21.910156 -56.847656 24.984375 -56.203125 C 28.054688 -55.554688 30.914062 -54.363281 33.5625 -52.625 C 36.207031 -50.894531 38.488281 -48.707031 40.40625 -46.0625 C 42.332031 -43.425781 43.671875 -40.460938 44.421875 -37.171875 C 44.703125 -35.691406 44.398438 -34.367188 43.515625 -33.203125 C 42.628906 -32.046875 41.445312 -31.296875 39.96875 -30.953125 L 5.046875 -22.9375 L 0.203125 -31.4375 L 33.765625 -39.140625 L 32.1875 -36.84375 L 31.609375 -39.3125 C 31.078125 -41.070312 30.085938 -42.519531 28.640625 -43.65625 C 27.191406 -44.800781 25.53125 -45.59375 23.65625 -46.03125 C 21.789062 -46.46875 19.914062 -46.46875 18.03125 -46.03125 C 16.195312 -45.613281 14.546875 -44.976562 13.078125 -44.125 C 11.609375 -43.269531 10.425781 -42.128906 9.53125 -40.703125 C 8.632812 -39.285156 8.070312 -37.519531 7.84375 -35.40625 C 7.625 -33.300781 7.859375 -30.753906 8.546875 -27.765625 C 9.296875 -24.460938 10.617188 -21.828125 12.515625 -19.859375 C 14.421875 -17.898438 16.59375 -16.570312 19.03125 -15.875 C 21.46875 -15.1875 23.90625 -15.125 26.34375 -15.6875 C 28.59375 -16.207031 30.347656 -16.800781 31.609375 -17.46875 C 32.867188 -18.144531 33.851562 -18.832031 34.5625 -19.53125 C 35.269531 -20.238281 35.910156 -20.851562 36.484375 -21.375 C 37.460938 -22.175781 38.4375 -22.691406 39.40625 -22.921875 C 40.75 -23.222656 41.96875 -23.019531 43.0625 -22.3125 C 44.164062 -21.613281 44.859375 -20.65625 45.140625 -19.4375 C 45.515625 -17.78125 45.003906 -16.082031 43.609375 -14.34375 C 42.328125 -12.632812 40.367188 -10.953125 37.734375 -9.296875 C 35.097656 -7.640625 32.253906 -6.457031 29.203125 -5.75 Z M 29.203125 -5.75 "/></g></g></g><g fill="#0f3a47" fill-opacity="1"><g transform="translate(363.477182, 355.000936)"><g><path d="M 18.96875 -66.984375 C 20.414062 -67.722656 21.851562 -67.859375 23.28125 -67.390625 C 24.707031 -66.921875 25.804688 -65.929688 26.578125 -64.421875 L 44.53125 -29 C 45.269531 -27.550781 45.410156 -26.097656 44.953125 -24.640625 C 44.503906 -23.191406 43.554688 -22.097656 42.109375 -21.359375 C 40.648438 -20.617188 39.195312 -20.492188 37.75 -20.984375 C 36.3125 -21.484375 35.222656 -22.457031 34.484375 -23.90625 L 32.40625 -28.015625 L 34.625 -28.1875 C 35 -27.46875 35.054688 -26.390625 34.796875 -24.953125 C 34.546875 -23.523438 34.003906 -21.96875 33.171875 -20.28125 C 32.335938 -18.601562 31.191406 -16.953125 29.734375 -15.328125 C 28.273438 -13.710938 26.484375 -12.367188 24.359375 -11.296875 C 20.515625 -9.347656 16.523438 -8.566406 12.390625 -8.953125 C 8.265625 -9.347656 4.410156 -10.832031 0.828125 -13.40625 C -2.753906 -15.976562 -5.695312 -19.523438 -8 -24.046875 C -10.3125 -28.617188 -11.441406 -33.109375 -11.390625 -37.515625 C -11.347656 -41.921875 -10.296875 -45.894531 -8.234375 -49.4375 C -6.171875 -52.976562 -3.269531 -55.695312 0.46875 -57.59375 C 2.863281 -58.8125 5.25 -59.566406 7.625 -59.859375 C 10.007812 -60.160156 12.222656 -60.125 14.265625 -59.75 C 16.316406 -59.382812 18.035156 -58.832031 19.421875 -58.09375 C 20.804688 -57.351562 21.695312 -56.59375 22.09375 -55.8125 L 19.625 -53.21875 L 16.53125 -59.328125 C 15.789062 -60.785156 15.644531 -62.238281 16.09375 -63.6875 C 16.550781 -65.144531 17.507812 -66.242188 18.96875 -66.984375 Z M 20.9375 -21.15625 C 23.394531 -22.394531 25.234375 -24.09375 26.453125 -26.25 C 27.679688 -28.414062 28.269531 -30.820312 28.21875 -33.46875 C 28.175781 -36.113281 27.488281 -38.742188 26.15625 -41.359375 C 24.800781 -44.035156 23.066406 -46.175781 20.953125 -47.78125 C 18.847656 -49.382812 16.5625 -50.328125 14.09375 -50.609375 C 11.632812 -50.898438 9.175781 -50.425781 6.71875 -49.1875 C 4.320312 -47.96875 2.507812 -46.28125 1.28125 -44.125 C 0.0625 -41.96875 -0.519531 -39.5625 -0.46875 -36.90625 C -0.425781 -34.257812 0.269531 -31.597656 1.625 -28.921875 C 2.957031 -26.304688 4.675781 -24.195312 6.78125 -22.59375 C 8.894531 -21 11.179688 -20.054688 13.640625 -19.765625 C 16.109375 -19.472656 18.539062 -19.9375 20.9375 -21.15625 Z M 20.9375 -21.15625 "/></g></g></g><g fill="#0f3a47" fill-opacity="1"><g transform="translate(423.34558, 322.349141)"><g><path d="M -25.734375 -42.546875 L -8.40625 -56.515625 C -7.238281 -57.453125 -5.945312 -57.84375 -4.53125 -57.6875 C -3.125 -57.539062 -1.945312 -56.882812 -1 -55.71875 C -0.101562 -54.59375 0.253906 -53.335938 0.078125 -51.953125 C -0.0859375 -50.566406 -0.753906 -49.40625 -1.921875 -48.46875 L -19.25 -34.5 C -20.414062 -33.5625 -21.703125 -33.164062 -23.109375 -33.3125 C -24.523438 -33.46875 -25.703125 -34.128906 -26.640625 -35.296875 C -27.546875 -36.410156 -27.910156 -37.660156 -27.734375 -39.046875 C -27.566406 -40.441406 -26.898438 -41.609375 -25.734375 -42.546875 Z M -25.28125 -58 C -24.007812 -59.019531 -22.625 -59.421875 -21.125 -59.203125 C -19.632812 -58.992188 -18.378906 -58.257812 -17.359375 -57 L 8.84375 -24.484375 C 9.394531 -23.796875 9.976562 -23.34375 10.59375 -23.125 C 11.21875 -22.90625 11.835938 -22.882812 12.453125 -23.0625 C 13.078125 -23.238281 13.65625 -23.546875 14.1875 -23.984375 C 14.769531 -24.453125 15.21875 -24.988281 15.53125 -25.59375 C 15.84375 -26.207031 16.316406 -26.769531 16.953125 -27.28125 C 17.628906 -27.832031 18.503906 -28.015625 19.578125 -27.828125 C 20.648438 -27.648438 21.640625 -27 22.546875 -25.875 C 23.640625 -24.507812 23.796875 -22.789062 23.015625 -20.71875 C 22.234375 -18.644531 20.992188 -16.921875 19.296875 -15.546875 C 18.273438 -14.722656 17.070312 -13.894531 15.6875 -13.0625 C 14.3125 -12.226562 12.8125 -11.695312 11.1875 -11.46875 C 9.5625 -11.25 7.832031 -11.523438 6 -12.296875 C 4.164062 -13.078125 2.285156 -14.660156 0.359375 -17.046875 L -26.140625 -49.9375 C -27.160156 -51.195312 -27.585938 -52.597656 -27.421875 -54.140625 C -27.253906 -55.691406 -26.539062 -56.976562 -25.28125 -58 Z M -25.28125 -58 "/></g></g></g><g fill="#0f3a47" fill-opacity="1"><g transform="translate(458.968978, 292.800931)"><g><path d="M -32.4375 -37.6875 L -17.671875 -54.328125 C -16.679688 -55.441406 -15.472656 -56.039062 -14.046875 -56.125 C -12.628906 -56.21875 -11.359375 -55.769531 -10.234375 -54.78125 C -9.160156 -53.820312 -8.597656 -52.644531 -8.546875 -51.25 C -8.492188 -49.851562 -8.960938 -48.597656 -9.953125 -47.484375 L -24.71875 -30.84375 C -25.71875 -29.71875 -26.921875 -29.109375 -28.328125 -29.015625 C -29.734375 -28.929688 -31 -29.390625 -32.125 -30.390625 C -33.195312 -31.335938 -33.765625 -32.507812 -33.828125 -33.90625 C -33.898438 -35.300781 -33.4375 -36.5625 -32.4375 -37.6875 Z M -34.546875 -53 C -33.472656 -54.207031 -32.179688 -54.832031 -30.671875 -54.875 C -29.160156 -54.925781 -27.796875 -54.410156 -26.578125 -53.328125 L 4.65625 -25.609375 C 5.3125 -25.023438 5.960938 -24.675781 6.609375 -24.5625 C 7.265625 -24.445312 7.882812 -24.53125 8.46875 -24.8125 C 9.050781 -25.09375 9.566406 -25.488281 10.015625 -26 C 10.515625 -26.5625 10.863281 -27.171875 11.0625 -27.828125 C 11.269531 -28.484375 11.644531 -29.113281 12.1875 -29.71875 C 12.757812 -30.375 13.59375 -30.703125 14.6875 -30.703125 C 15.78125 -30.703125 16.867188 -30.222656 17.953125 -29.265625 C 19.253906 -28.097656 19.691406 -26.425781 19.265625 -24.25 C 18.835938 -22.070312 17.898438 -20.164062 16.453125 -18.53125 C 15.578125 -17.550781 14.523438 -16.535156 13.296875 -15.484375 C 12.078125 -14.429688 10.679688 -13.65625 9.109375 -13.15625 C 7.546875 -12.664062 5.796875 -12.65625 3.859375 -13.125 C 1.929688 -13.59375 -0.175781 -14.84375 -2.46875 -16.875 L -34.046875 -44.90625 C -35.265625 -45.988281 -35.921875 -47.300781 -36.015625 -48.84375 C -36.117188 -50.394531 -35.628906 -51.78125 -34.546875 -53 Z M -34.546875 -53 "/></g></g></g><g fill="#0f3a47" fill-opacity="1"><g transform="translate(488.354891, 258.251305)"><g><path d="M 5.34375 -18.40625 C 6.695312 -17.507812 7.523438 -16.300781 7.828125 -14.78125 C 8.140625 -13.269531 7.847656 -11.835938 6.953125 -10.484375 C 6.085938 -9.179688 4.90625 -8.390625 3.40625 -8.109375 C 1.90625 -7.828125 0.476562 -8.132812 -0.875 -9.03125 L -49.21875 -41.109375 C -50.570312 -42.003906 -51.398438 -43.207031 -51.703125 -44.71875 C -52.015625 -46.238281 -51.71875 -47.675781 -50.8125 -49.03125 C -49.914062 -50.382812 -48.726562 -51.1875 -47.25 -51.4375 C -45.769531 -51.695312 -44.351562 -51.378906 -43 -50.484375 Z M 5.34375 -18.40625 "/></g></g></g><g fill="#0f3a47" fill-opacity="1"><g transform="translate(507.438006, 230.568237)"><g><path d="M 12.734375 -26.90625 C 10.617188 -22.03125 7.757812 -18.238281 4.15625 -15.53125 C 0.5625 -12.832031 -3.398438 -11.285156 -7.734375 -10.890625 C -12.078125 -10.492188 -16.457031 -11.257812 -20.875 -13.1875 C -26.03125 -15.4375 -29.972656 -18.398438 -32.703125 -22.078125 C -35.441406 -25.753906 -37.050781 -29.710938 -37.53125 -33.953125 C -38.007812 -38.191406 -37.421875 -42.207031 -35.765625 -46 C -34.492188 -48.914062 -32.6875 -51.414062 -30.34375 -53.5 C -28.007812 -55.59375 -25.351562 -57.1875 -22.375 -58.28125 C -19.40625 -59.382812 -16.285156 -59.921875 -13.015625 -59.890625 C -9.742188 -59.859375 -6.5625 -59.171875 -3.46875 -57.828125 C -2.125 -57.171875 -1.242188 -56.140625 -0.828125 -54.734375 C -0.421875 -53.328125 -0.519531 -51.929688 -1.125 -50.546875 L -15.4375 -17.671875 L -25.15625 -18.84375 L -11.40625 -50.421875 L -10.515625 -47.78125 L -12.84375 -48.796875 C -14.550781 -49.410156 -16.296875 -49.472656 -18.078125 -48.984375 C -19.859375 -48.503906 -21.476562 -47.640625 -22.9375 -46.390625 C -24.40625 -45.148438 -25.523438 -43.644531 -26.296875 -41.875 C -27.046875 -40.15625 -27.515625 -38.445312 -27.703125 -36.75 C -27.898438 -35.050781 -27.691406 -33.421875 -27.078125 -31.859375 C -26.460938 -30.296875 -25.375 -28.796875 -23.8125 -27.359375 C -22.25 -25.929688 -20.0625 -24.609375 -17.25 -23.390625 C -14.144531 -22.035156 -11.238281 -21.53125 -8.53125 -21.875 C -5.820312 -22.226562 -3.460938 -23.179688 -1.453125 -24.734375 C 0.546875 -26.296875 2.046875 -28.222656 3.046875 -30.515625 C 3.972656 -32.628906 4.539062 -34.394531 4.75 -35.8125 C 4.957031 -37.226562 4.984375 -38.429688 4.828125 -39.421875 C 4.671875 -40.410156 4.5625 -41.289062 4.5 -42.0625 C 4.4375 -43.3125 4.601562 -44.394531 5 -45.3125 C 5.550781 -46.570312 6.4375 -47.4375 7.65625 -47.90625 C 8.882812 -48.375 10.070312 -48.359375 11.21875 -47.859375 C 12.769531 -47.179688 13.820312 -45.757812 14.375 -43.59375 C 14.988281 -41.550781 15.179688 -38.972656 14.953125 -35.859375 C 14.734375 -32.753906 13.992188 -29.769531 12.734375 -26.90625 Z M 12.734375 -26.90625 "/></g></g></g></svg>